<!DOCTYPE svg PUBLIC "-//W3C//DTD SVG 20010904//EN" "http://www.w3.org/TR/2001/REC-SVG-20010904/DTD/svg10.dtd">
<svg version="1.0" xmlns="http://www.w3.org/2000/svg" width="840px" height="859px" viewBox="0 0 8400 8590" preserveAspectRatio="xMidYMid meet">
<g id="layer101" fill="#7289da" stroke="none">
 <path d="M0 4295 l0 -4295 4200 0 4200 0 0 4295 0 4295 -4200 0 -4200 0 0 -4295z"/>
 </g>
<g id="layer102" fill="#f6f6f7" stroke="none">
 <path d="M0 4295 l0 -4295 4200 0 4200 0 0 4295 0 4295 -4200 0 -4200 0 0 -4295z m2377 2798 c223 -276 303 -377 303 -384 0 -4 -12 -10 -27 -14 -73 -18 -282 -103 -408 -165 -299 -148 -568 -357 -744 -579 -28 -36 -51 -68 -51 -72 0 -4 71 35 158 87 193 117 403 221 627 309 1094 434 2169 518 3240 255 452 -111 1070 -365 1417 -583 58 -37 109 -67 113 -67 14 0 -94 130 -180 215 -253 254 -606 466 -968 582 -61 20 -116 39 -121 44 -9 8 46 78 308 397 171 207 136 189 326 172 602 -55 1089 -236 1535 -573 109 -82 339 -313 414 -415 l61 -84 0 -106 c-1 -593 -106 -1373 -277 -2047 -175 -690 -459 -1465 -712 -1943 -45 -85 -48 -88 -156 -164 -159 -111 -306 -197 -505 -296 -256 -128 -481 -212 -739 -277 -202 -51 -480 -95 -603 -95 -44 0 -49 3 -94 55 -26 31 -45 57 -43 59 2 2 63 23 134 46 579 191 1106 455 1502 752 134 101 133 109 -7 36 -555 -291 -1240 -508 -1875 -592 -322 -43 -429 -50 -780 -51 -384 0 -459 5 -1005 70 -543 64 -1188 264 -1770 550 -93 46 -170 82 -170 80 0 -8 186 -148 285 -215 279 -187 647 -374 1025 -520 125 -49 414 -147 503 -171 20 -5 37 -13 37 -18 0 -4 -15 -25 -33 -46 l-34 -39 -144 13 c-574 50 -1174 273 -1707 634 -74 50 -144 105 -157 121 -31 42 -140 270 -245 516 -373 872 -629 1833 -729 2735 -28 246 -51 599 -51 769 0 137 1 143 27 181 92 137 257 311 418 440 442 355 983 554 1625 598 119 9 91 29 277 -200z"/>
 <path d="M2775 5541 c-218 -36 -398 -160 -519 -360 -129 -212 -152 -505 -59 -741 84 -210 260 -383 457 -446 106 -34 249 -42 356 -20 107 22 241 92 323 167 115 105 187 220 233 376 22 74 26 108 27 218 1 144 -10 211 -55 327 -85 224 -285 408 -502 463 -75 19 -196 26 -261 16z"/>
 <path d="M5410 5544 c-92 -15 -144 -30 -207 -59 -294 -135 -466 -432 -450 -774 10 -206 80 -377 211 -518 137 -147 292 -221 482 -231 351 -17 644 220 740 598 27 105 24 295 -5 405 -87 329 -352 561 -663 579 -45 2 -94 3 -108 0z"/>
 </g>

</svg>