<!DOCTYPE svg PUBLIC "-//W3C//DTD SVG 20010904//EN" "http://www.w3.org/TR/2001/REC-SVG-20010904/DTD/svg10.dtd">
<svg version="1.0" xmlns="http://www.w3.org/2000/svg" width="600px" height="600px" viewBox="0 0 6000 6000" preserveAspectRatio="xMidYMid meet">
<g id="layer101" fill="#8d9efd" stroke="none">
 <path d="M5169 5579 c-35 -28 -73 -59 -85 -68 -18 -16 -198 -153 -374 -286 -37 -28 -74 -57 -82 -65 -9 -8 -60 -49 -114 -90 -54 -41 -156 -121 -227 -177 -71 -57 -131 -103 -133 -103 -2 0 0 10 5 23 28 67 100 310 95 318 -3 5 -634 9 -1517 9 -1586 0 -1599 -1 -1715 -44 -87 -32 -196 -107 -257 -178 -45 -52 -97 -145 -128 -224 l-22 -59 0 -1755 c0 -1957 -6 -1779 68 -1930 44 -89 178 -223 267 -267 151 -74 -34 -68 1990 -68 l1815 0 72 26 c193 69 330 206 406 405 l22 59 3 2263 c2 1893 0 2262 -11 2262 -8 0 -43 -23 -78 -51z"/>
 </g>
<g id="layer102" fill="#fdfeff" stroke="none">
 <path d="M2220 3993 c-288 -31 -572 -156 -767 -337 l-73 -68 0 -56 c0 -139 52 -483 105 -702 88 -357 244 -735 337 -814 123 -106 435 -234 635 -261 51 -7 52 -6 68 25 9 18 15 33 13 34 -2 1 -55 19 -118 39 -187 59 -359 152 -468 253 l-47 44 125 -59 c343 -161 571 -214 915 -213 333 0 565 55 893 212 69 33 127 59 129 57 5 -6 -87 -80 -161 -130 -98 -66 -214 -120 -351 -163 -66 -21 -121 -38 -123 -39 -1 -1 5 -16 14 -33 18 -37 23 -37 133 -17 165 32 359 111 517 213 75 48 83 57 126 135 188 344 314 796 364 1312 l14 149 -52 54 c-191 197 -495 334 -813 366 l-60 6 -53 -70 c-28 -38 -52 -73 -52 -77 0 -5 45 -28 100 -51 55 -24 141 -69 190 -101 94 -58 266 -199 256 -208 -3 -3 -65 24 -138 60 -221 110 -430 165 -723 188 -476 37 -943 -48 -1237 -227 -32 -20 -62 -34 -65 -31 -7 8 78 87 162 151 93 70 209 137 306 176 44 18 79 36 79 41 0 5 -24 41 -52 79 -37 50 -58 70 -73 68 -11 0 -36 -3 -55 -5z m368 -642 c75 -38 123 -103 148 -202 29 -113 3 -234 -69 -315 -121 -137 -303 -101 -386 76 -22 47 -26 69 -26 150 0 81 4 103 26 150 34 73 70 113 122 139 54 27 134 28 185 2z m901 -14 c185 -122 173 -465 -20 -560 -94 -47 -191 -28 -260 51 -139 158 -94 448 81 527 55 24 148 16 199 -18z"/>
 </g>

</svg>