<?xml version="1.0" standalone="yes"?>
<svg xmlns="http://www.w3.org/2000/svg" width="512" height="512">
<path style="fill:#000000; stroke:none;" d="M0 0L0 512L512 512L512 0L0 0z"/>
<path style="fill:#973dac; stroke:none;" d="M212 75L212 83L208 83L208 87L200 87L200 91L237 91L237 87L282 87L282 83L290 83L290 79L294 79L294 75L212 75z"/>
<path style="fill:#8440b0; stroke:none;" d="M99 112L113 112L113 108L121 108L121 104L125 104L125 100L141 99L142 92L150 91L150 88L154 88L154 83L179 83L179 79L187 79L187 75C162.642 76.046 137.468 79.881 117 94.2083C110.208 98.9628 102.87 104.541 99 112z"/>
<path style="fill:#8a41af; stroke:none;" d="M187 75L187 79L179 79L179 83L154 83L154 88L150 88L150 91L142 92L141 99L134 99C138.879 101.043 144.801 99.043 150 99L150 96L154 96C156.141 88.9482 164.98 91 171 91L171 87L195 87L195 83L212 83L212 75L187 75z"/>
<path style="fill:#a03aa7; stroke:none;" d="M294 75L294 79L290 79L290 83L282 83L282 87L253 87L253 92L237 92L237 95L220 95L220 99L216 99L216 103C206.291 103.766 196.763 104 187 104L187 108L179 108C186.006 110.94 195.635 108.594 203 108.09C216.874 107.139 231.092 108 245 108L245 104L253 103L253 95L270 95L270 92L294 91L294 87L302 87L302 84L307 84L307 79L327 79L327 75L294 75z"/>
<path style="fill:#a338ac; stroke:none;" d="M327 75L327 79L307 79L307 84L302 84L302 87L343 87L343 84L347 84L347 87L381 87C366.516 76.0493 344.072 77.1576 327 75z"/>
<path style="fill:#8d3ead; stroke:none;" d="M195 83L195 87L171 87L171 91C165.172 91 155.233 88.6101 154 96L150 96L150 99L125 100L125 104L121 104L121 108L138 108L138 104L154 104L154 100C159.759 100 165.282 99.4513 171 99L171 96L183 96L183 92C188.828 92 198.767 94.3899 200 87L208 87L208 83L195 83z"/>
<path style="fill:#a538a6; stroke:none;" d="M343 84L343 87L294 87L294 91L270 92L270 95L253 95L253 100L282 99L282 96C294.35 95.0253 306.588 95 319 95L319 92C331.35 91.0253 343.588 91 356 91L356 87L347 87L347 84L343 84z"/>
<path style="fill:#963ca7; stroke:none;" d="M237 87L237 91L183 92L183 96L171 96L171 99L154 100L154 104L146 104L146 108L142 108L142 112L134 112L134 116C152.132 116 168.961 108.161 187 108L187 104C196.733 104 206.341 104.221 216 103L216 99L220 99L220 95L237 95L237 92L253 92L253 87L237 87z"/>
<path style="fill:#ac35a8; stroke:none;" d="M356 87L356 91L343 92L343 96L331 96L331 100L327 100L327 103L335 103L335 100L360 100L360 96L364 96L364 99L401 100C389.572 85.1038 372.68 87 356 87z"/>
<path style="fill:#a937a4; stroke:none;" d="M319 92L319 95C306.654 95 294.252 94.4517 282 96L282 99L253 100L253 103L245 104L245 108L311 108L311 104L340 104L339 100L335 100L335 103L327 103L327 100L331 100L331 96L343 96L343 92L348 92C340.088 88.6799 327.354 90.9443 319 92z"/>
<path style="fill:#b134a4; stroke:none;" d="M360 96L360 100L339 100L340 104L311 104C312.439 112.287 324.027 108.075 330 108.004C349.661 107.77 369.338 108 389 108L389 104L406 104C401.8 98.957 396.072 100.01 390 100C381.328 99.9861 372.715 99 364 99L364 96L360 96z"/>
<path style="fill:#8c3ba9; stroke:none;" d="M138 104L138 108L113 108L113 112C108.768 112 103.076 111.017 99.0903 112.603C92.5648 115.201 87.81 126.717 86 133L93 132L93 129C99.722 128.469 106.234 128 113 128L113 125L117 125L117 120L129 120C130.373 117.453 131.218 116.812 134 116L134 112L142 112L142 108L146 108L146 104L138 104z"/>
<path style="fill:#b531a3; stroke:none;" d="M389 104L389 108L323 108C330.135 110.994 340.235 109.887 348 111.449C356.649 113.189 364.589 118.682 373 120.077C380.503 121.321 389.356 120 397 120L397 124L409 124L409 128L414 128L414 125L422 125C419.543 118.299 413.01 107.22 405.996 104.603C401.118 102.783 394.156 104 389 104z"/>
<path style="fill:#000000; stroke:none;" d="M199 108.424C192.337 109.299 185.666 108.535 179 109.17C160.213 110.959 140.521 115.498 127.289 130.039C111.794 147.069 109.258 169.988 108.996 192C108.502 233.496 106.07 275.522 108.91 317C110.514 340.415 110.385 363.383 127.289 381.961C144.607 400.993 170.222 401.998 194 403.039C221.616 404.249 249.31 404 277 404C298.861 404 321.35 404.779 343 401.573C350.114 400.519 357.366 398.967 364 396.127C368.999 393.988 373.714 391.333 378 387.985C400.942 370.062 401.284 343.372 403.09 317C405.336 284.196 404 250.914 404 218C404 191.925 405.768 159.469 390.226 137C373.159 112.325 345.286 110.156 318 108.961C294.698 107.94 271.371 108 248 108C231.971 108 214.894 106.337 199 108.424z"/>
<path style="fill:#953aa3; stroke:none;" d="M129 120L117 120L117 125L113 125L113 128C106.229 128 99.7156 128.151 93 129L93 132C83.4246 132.446 81.8965 140.802 80 149L97 149L97 140L105 140L105 137L117 136L117 133C129.202 132.991 135.989 121.609 147 117C142.121 114.953 130.943 114.146 129 120z"/>
<path style="fill:#bb319f; stroke:none;" d="M374 120C376.196 123.796 379.831 126.021 382.91 129.09C385.449 131.619 387.527 135.078 391.015 136.397C395.09 137.937 400.698 137 405 137L405 141L422 141L422 145L431 145C429.251 139.633 427.22 129.423 422.363 126.028C420.119 124.46 416.584 125.002 414 125L414 128L409 128L409 124L397 124L397 120L374 120z"/>
<path style="fill:#9f389c; stroke:none;" d="M117 133L117 136C112.92 136.011 109.037 136.49 105 137L105 140L97 140L97 149C92.8154 149 84.1717 147.348 80.7276 150.028C78.3254 151.897 78.2067 156.257 77.7539 159C76.4778 166.731 76 174.176 76 182L80 182L80 178L84 178L84 174L88 174L88 166L92 166C94.1407 158.948 102.98 161 109 161L109 157C114.01 156.133 114.414 152.204 116.312 148C118.721 142.662 121.943 137.958 125 133L117 133z"/>
<path style="fill:#c63092; stroke:none;" d="M330 162L348 162L348 165C356.521 165 365.673 164.018 374 166C375.537 159.546 375.164 152.751 371.438 147.039C363.422 134.755 344.736 133.692 335.39 145.04C331.446 149.83 330.26 155.967 330 162z"/>
<path style="fill:#c0329b; stroke:none;" d="M390 137C392.091 140.974 394.348 144.869 396.127 149C397.082 151.215 397.668 154.447 399.702 155.972C402.042 157.727 406.253 157 409 157L409 161L434 162C433.965 157.728 434.075 147.861 429.57 145.603C427.434 144.533 424.312 145.002 422 145L422 141L405 141L405 137L390 137z"/>
<path style="fill:#b0368f; stroke:none;" d="M109 157L109 161C103.172 161 93.2333 158.61 92 166L88 166L88 174L84 174L84 178L80 178L80 182L75 182L75 207C75.7789 205.231 75.9124 203.964 76 202L84 202L84 199C88.302 198.985 92.8258 199.404 92 194L101 194L101 186L105 186L105 182L109 182C109.667 173.545 111.29 165.29 113 157L109 157z"/>
<path style="fill:#c83094; stroke:none;" d="M399 157C400.71 165.29 402.333 173.545 403 182L413 182L413 186L430 186L430 190L437 190C436.973 180.309 435.2 170.677 435 161C426.946 162.895 417.343 161 409 161L409 157L399 157z"/>
<path style="fill:#c92f8f; stroke:none;" d="M331 162C332.285 186.777 366.206 186.966 374 166C365.997 163.634 356.32 165 348 165L348 162L331 162z"/>
<path style="fill:#c93289; stroke:none;" d="M212 173C218.884 175.889 229.554 174.051 237 173.999C240.958 173.972 243.664 174.025 245 170L257 170L257 174L253 174L253 182L257 182L257 178L274 178L274 174L286 174L286 178L307 178C301.294 172.234 291.677 168.887 284 166.59C259.197 159.167 235.332 163.299 212 173z"/>
<path style="fill:#ca3283; stroke:none;" d="M245 170C242.544 174.454 238.683 173.998 234 174C227.085 174.003 219.883 173.42 213 174.105C202.974 175.102 191.502 186.19 186 194L257 194L257 190L282 190L282 186L253 186L253 174L257 174L257 170L245 170z"/>
<path style="fill:#cc3085; stroke:none;" d="M274 174L274 178L257 178L257 182L253 182L253 186L282 186L282 190L306 190L306 186L315 186L315 190L322 190C318.733 185.458 313.473 180.333 308 178.564C301.567 176.484 292.727 178 286 178L286 174L274 174z"/>
<path style="fill:#b83886; stroke:none;" d="M105 182L105 186L101 186L101 194L92 194C91.7725 198.938 88.2928 198.949 84 199L84 202L76 202C75.5487 207.718 75 213.241 75 219L84 219L84 215L97 215C96.3521 212.291 96.0583 209.784 96 207L108 207L109 182L105 182z"/>
<path style="fill:#ce2f8f; stroke:none;" d="M403 182L404 215L413 215L413 219L426 219L426 223L430 223L430 227L438 227C435.237 215.393 437 201.899 437 190L430 190L430 186L413 186L413 182L403 182z"/>
<path style="fill:#cf3081; stroke:none;" d="M306 186L306 190L257 190L257 194C265.629 196.325 274.19 200.779 283 202.61C287.335 203.51 291.652 202.029 296 202.029C302.322 202.029 308.629 203 315 203L315 206L323 206L323 203L331 203C329.718 194.221 323.364 190.03 315 190L315 186L306 186z"/>
<path style="fill:#cb337f; stroke:none;" d="M175 214L179 214L179 211L187 211L187 207L199 207L199 203L212 203L212 199C220.557 199 229.489 199.738 238 198.826C245.826 197.989 253.031 196.001 261 196L261 194L211 194C203.664 194 194.184 192.399 187.09 194.318C180.27 196.163 174.46 207.471 175 214z"/>
<path style="fill:#000000; stroke:none;" d="M250 196.428C220.758 200.617 198.144 223.004 196.09 253C193.726 287.514 226.165 319.992 261 315.714C290.668 312.07 313.839 289.256 315.91 259C318.299 224.125 285.145 191.393 250 196.428z"/>
<path style="fill:#d13676; stroke:none;" d="M212 199L212 203L199 203L199 207L187 207L187 211L179 211L179 214C176.668 213.434 175.69 212.704 174 211C171.752 214.852 169.787 218.587 169 223L179 223L179 219L199 219C202.024 219 205.86 219.59 208.715 218.397C212.315 216.892 215.023 212.908 218 210.465C223.573 205.892 230.053 202.001 237 200C230.072 197.093 219.497 199 212 199z"/>
<path style="fill:#d42f7f; stroke:none;" d="M331 201C328.44 202.942 326.192 202.965 323 203L323 206L315 206L315 203C304.52 203 294.464 202.551 284 203C290.204 208.414 297.53 214.9 306 215L306 211L319 211L319 215L327 215L327 219L339 219L339 223L343 223C341.652 215.436 336.935 205.917 331 201z"/>
<path style="fill:#bf3a7e; stroke:none;" d="M96 207C96.0208 209.849 96.1898 212.271 97 215L84 215L84 219L75 219L74 235L80 235L80 231L93 231L93 227L97 227L97 223L108 223L108 207L96 207z"/>
<path style="fill:#d62f7c; stroke:none;" d="M306 211L306 215L300 215C302.532 219.445 305.798 223.367 308 228C311.815 227.17 315.153 227.699 319 228L319 231L327 231L327 236L335 235L335 232L339 232C339.078 238.541 342.044 243.466 349 244C347.698 237.088 347.714 223.695 339 223L339 219L327 219L327 215L319 215L319 211L306 211z"/>
<path style="fill:#d42f88; stroke:none;" d="M404 215C404 223.019 403.531 231.089 405 239L409 239L409 248L422 248L422 252L430 252L430 256L434 256L434 260L438 260L438 227L430 227L430 223L426 223L426 219L413 219L413 215L404 215z"/>
<path style="fill:#d53a6f; stroke:none;" d="M179 219L179 223C176.146 223 172.054 222.294 169.43 223.603C166.054 225.289 165.486 231.699 165 235L183 235L183 231C189.346 231 195.792 230.522 202 232C203.92 227.412 206.596 223.334 209 219L179 219z"/>
<path style="fill:#c83e73; stroke:none;" d="M97 223L97 227L93 227L93 231L80 231L80 235L74 235L74 256L80 256L80 252L93 251L93 247C95.364 246.518 95.5175 246.364 96 244L108 244L108 223L97 223z"/>
<path style="fill:#dc3175; stroke:none;" d="M309 227C309.981 232.52 312.763 237.531 314.102 243C314.694 245.422 314.641 249.27 316.74 250.972C318.384 252.305 321.041 251.977 323 252L323 256L335 256L335 260L339 260L339 264L347 264L347 268L349 268L349 244C342.65 243.013 339.202 238.214 339 232L335 232L335 235L327 236L327 231L319 231L319 228L309 227z"/>
<path style="fill:#da3e67; stroke:none;" d="M183 231L183 235C178.598 235 169.212 233.22 165.6 236.028C161.232 239.423 163 251.136 163 256L171 256L171 252L188 252C190.206 251.995 193.402 252.463 195.258 250.972C196.962 249.605 197.031 246.962 197.449 244.999C198.456 240.268 200.293 235.789 201 231L183 231z"/>
<path style="fill:#d92f7f; stroke:none;" d="M404 236L404 273L409 273C409.968 275.964 410.934 276.503 414 277L414 273C416.124 273.899 416.101 273.876 417 276L422 276L422 281L426 281L426 285L430 285L430 289L426 289L426 293L434 293L434 297L437 297L438 260L434 260L434 256L430 256L430 252L422 252L422 248L409 248L409 239C406.668 238.434 405.69 237.704 404 236z"/>
<path style="fill:#d44965; stroke:none;" d="M96 244C95.1007 246.124 95.1236 246.101 93 247L93 251L80 252L80 256L74 256L74 281C78.6835 281 84.3605 281.851 88.8711 280.428C91.9355 279.462 93.8394 276.91 97 276L97 273L108 272L108 244L96 244z"/>
<path style="fill:#e44a57; stroke:none;" d="M171 252L171 256L163 256C163 262.223 161.42 274.382 165.938 279.397C168.162 281.864 173.039 281 176 281L201 281C199.533 271.068 196.007 262.258 196 252L171 252z"/>
<path style="fill:#e0356a; stroke:none;" d="M316 252C315.993 262.258 312.467 271.068 311 281L315 281L315 285L323 285L323 289L327 289L327 293L335 293L335 297C346.145 296.14 347.351 276.751 349 268C347.733 266.457 347.511 265.952 347 264L339 264L339 260L335 260L335 256L323 256L323 252L316 252z"/>
<path style="fill:#e15454; stroke:none;" d="M97 273L97 276C93.2659 276.602 91.4392 279.379 87.946 280.428C83.6493 281.719 78.4427 281 74 281L75 301L88 301C89.3726 298.453 90.2183 297.812 93 297L93 293L108 293L108 272C104.265 272.031 100.695 272.533 97 273z"/>
<path style="fill:#db2f7b; stroke:none;" d="M404 273L404 293L409 293L409 301L413 301C413.872 306.225 417.345 305.984 422 306L422 309L426 309L426 314L430 314L430 318L434 318L434 322L437 322L437 297L434 297L434 293L426 293L426 289L430 289L430 285L426 285L426 281L422 281L422 276C418.966 275.538 416.853 273.891 414 273L414 277C411.218 276.188 410.373 275.547 409 273L404 273z"/>
<path style="fill:#eb534c; stroke:none;" d="M166 281C167.229 286.879 168.206 292.472 175 293L175 297L199 297L199 301L203 301L203 298L208 298L208 301L216 301C211.088 293.943 205.377 288.068 202 280C190.69 282.693 177.593 281 166 281z"/>
<path style="fill:#e73d5d; stroke:none;" d="M310 280C306.189 289.106 296.554 295.9 294 305L298 305L298 309L302 309L302 313C306.377 313.553 310.578 313.997 315 314C314.707 316.733 314.77 319.262 315 322C317.297 322.674 317.774 322.965 319 325C328.378 318.389 335.624 307.507 340 297L335 297L335 293L327 293L327 289L323 289L323 285L315 285L315 281L310 280z"/>
<path style="fill:#e55c4c; stroke:none;" d="M93 293L93 297C89.9338 297.497 88.9683 298.036 88 301L75 301L75 313C75.6848 311.752 75.7488 311.452 76 310L80 310L80 314L93 313L93 309L108 309L108 293L93 293z"/>
<path style="fill:#ef5a43; stroke:none;" d="M170 293C172.469 298.929 175.464 304.638 179 310C191.067 307.127 203.815 309.966 216 310L216 313L228 314L228 318L237 318C238.484 323.074 244.584 322 249 322L249 326L245 326L245 330L261 330L261 334L265 334L265 343L273 343C273.176 344.878 273.438 346.199 274 348C279.458 346.87 285.012 345.506 290 343C288.494 342.317 287.685 342.174 286 342L286 338L278 338C277.989 333.92 277.51 330.037 277 326L269 326L269 322L265 322L265 318C254.986 317.889 242.146 314.811 233 310.688C223.999 306.631 218.231 301.007 208 301L208 298L203 298L203 301L199 301L199 297L175 297L175 293L170 293z"/>
<path style="fill:#de2f73; stroke:none;" d="M404 293L405 322L413 322L413 326L417 326L417 330L421 330L421 334C425.702 335.428 425.946 338.461 426 343L430 343L430 347L434 347L434 351C437.452 342.998 436.976 330.68 437 322L434 322L434 318L430 318L430 314L426 314L426 309L422 309L422 306C417.461 305.946 414.428 305.702 413 301L409 301L409 293L404 293z"/>
<path style="fill:#ed4a50; stroke:none;" d="M293 302C287.105 307.011 280.312 310.51 273 313C274.506 313.683 275.315 313.826 277 314C277.968 316.964 278.934 317.503 282 318L282 322L294 322L294 326L302 326L302 334C309.342 334.527 317.788 329.689 319 322L315 322L315 314L302 313L302 309L298 309L298 305C295.668 304.434 294.69 303.704 293 302z"/>
<path style="fill:#e0316f; stroke:none;" d="M404 305C403.895 317.649 402.035 330.346 402 343C404.124 343.899 404.101 343.876 405 346L409 346L409 350L413 350L414 359L422 359L422 367L426 367L426 379C431.915 370.09 433.993 357.503 434 347L430 347L430 343L426 343C425.984 338.345 426.225 334.872 421 334L421 330L417 330L417 326L413 326L413 322L405 322C405 316.638 406.087 309.974 404 305z"/>
<path style="fill:#e86447; stroke:none;" d="M93 309L93 313C88.5776 313.003 84.3769 313.447 80 314L80 310L76 310C75.2507 314.036 75.0027 317.899 75 322L88 322L88 318L109 318L108 309L93 309z"/>
<path style="fill:#f05c41; stroke:none;" d="M180 309C185.151 324.531 198.634 322 212 322L212 326L249 326L249 322C244.305 321.987 239.668 322.361 237 318L228 318L228 314C223.963 313.49 220.08 313.011 216 313L216 310L180 309z"/>
<path style="fill:#ef5347; stroke:none;" d="M257 316L257 318L265 318L265 322L269 322L269 326L277 326L278 338L286 338L286 342C292.816 342.701 302.056 340.021 306 334L302 334L302 326L294 326L294 322L282 322L282 318C279.218 317.188 278.373 316.547 277 314C270.163 313.434 263.779 315.464 257 316z"/>
<path style="fill:#ef6e3d; stroke:none;" d="M88 318L88 322L75 322C75.0305 333.04 76.6167 344.064 78 355L88 355L88 350L92 350L92 347L111 346C109.808 336.569 109 327.519 109 318L88 318z"/>
<path style="fill:#f3613d; stroke:none;" d="M190 322C195.316 329.39 203.957 334.704 212 338.752C231.717 348.675 252.271 350.746 274 348L273 343L265 343L265 334L261 334L261 330L245 330L245 326L212 326L212 322L190 322z"/>
<path style="fill:#e53765; stroke:none;" d="M401 343C400.557 353.151 395.734 361.505 393 371L397 371L397 380L401 380L401 388L405 388L405 396L409 396L409 404C422.028 397.024 426 380.338 426 367L422 367L422 359L414 359L413 350L409 350L409 346L405 346L405 343L401 343z"/>
<path style="fill:#f27c39; stroke:none;" d="M92 347L92 350L88 350L88 355L78 355C79.328 360.131 79.5513 367.659 84 371L84 367L96 367L96 363L115 363L111 346C104.569 346 98.3881 346.496 92 347z"/>
<path style="fill:#f78a38; stroke:none;" d="M96 363L96 367L84 367C83.0576 375.025 85.9931 381.134 90 388C91.9201 386.703 92.3161 386.209 93 384L121 383L121 380L125 380C123.214 375.753 118.904 365.623 114.61 363.603C109.811 361.346 101.249 363 96 363z"/>
<path style="fill:#e83d5d; stroke:none;" d="M385 384L389 384L389 392L393 392L393.001 408.999C393.013 410.796 392.624 413.727 394.028 415.149C396.067 417.215 399.358 414.418 401 413.173C407.91 407.933 409.062 404.24 409 396L405 396L405 388L401 388L401 380L397 380L397 371C390.459 371.517 386.226 377.903 385 384z"/>
<path style="fill:#fa9a3c; stroke:none;" d="M121 380L121 383L93 384C92.1083 385.939 91.5982 386.519 90 388C92.0022 391.746 94.316 396.808 98.1736 398.972C100.757 400.421 104.154 399.999 107 400L126 400L126 396L147 396C139.895 390.108 131.571 386.843 126 379L121 380z"/>
<path style="fill:#eb4954; stroke:none;" d="M384 382C378.24 387.302 372.258 391.962 365 395C366.248 395.685 366.548 395.749 368 396L368 400L372 400L372 404L380 404L381 412L384 412L385 420C388.987 420.534 391.484 419.941 395 418C391.862 409.81 393 400.67 393 392L389 392L389 384C387.053 383.546 385.731 383.006 384 382z"/>
<path style="fill:#fb9f3f; stroke:none;" d="M126 396L126 400L99 400C101.39 404.607 104.773 408.021 109 411C111.615 406.967 116.614 408 121 408L121 404L195 404L195 408L212 408L212 404C198.468 404 184.433 403.429 171 401.715C163.095 400.706 155.773 397.621 148 396.326C140.928 395.147 133.158 396 126 396z"/>
<path style="fill:#ee534e; stroke:none;" d="M352 404L356 404L356 408L360 408L360 412L364 412L364 416L368 416L368 421L372 421L372 429C377.904 427.385 384.262 424.926 389 421L385 420L384 412L381 412L380 404L372 404L372 400L368 400L368 396C362.154 396.267 353.115 397.302 352 404z"/>
<path style="fill:#f15d49; stroke:none;" d="M339 402C339.028 405.422 339.375 408.637 340 412L344 412L344 416L348 416L348 421L352 421L352 429L356 429L356 433C360.267 432.814 368.251 432.35 370.972 428.49C372.407 426.455 371.992 423.346 372 421L368 421L368 416L364 416L364 412L360 412L360 408L356 408L356 404L352 404L352 400L339 402z"/>
<path style="fill:#f46d45; stroke:none;" d="M310 404L311 408L315 408L315 412L319 412L319 421L327 421L327 429L331 429L331 433L335 433L335 436C342.118 435.995 348.939 434.557 356 434L356 429L352 429L352 421L348 421L348 416L344 416L344 412L340 412L339 402C329.43 402.755 319.433 402.249 310 404z"/>
<path style="fill:#fca544; stroke:none;" d="M121 404L121 408L109 408C110.631 417.729 121.485 416 129 416L129 413L179 412L179 416L212 416L212 420C216.037 420.51 219.92 420.989 224 421L224 425L232 425L232 421C229.314 420.499 226.73 420.117 224 420L224 416L216 416L216 412L200 412L200 409C196.873 408.066 195.934 407.127 195 404L121 404z"/>
<path style="fill:#fa9445; stroke:none;" d="M212 404L212 408L220 408L220 412L233 412L233 416L236 416L236 412L241 412L241 416C246.388 416.681 251.563 417 257 417L257 421L261 421L261 425L265 425L265 429L269 429L269 433L278 433L278 437L286 438L286 421L282 421L282 416L274 416L274 413L265 412L265 404L212 404z"/>
<path style="fill:#f98742; stroke:none;" d="M265 404L265 412L274 413L274 416L282 416L282 421L286 421L286 437L319 437L319 425L315 425L315 421L306 421L306 413C301.963 412.49 298.08 412.011 294 412L294 408L290 408L290 404L265 404z"/>
<path style="fill:#f77942; stroke:none;" d="M290 404L290 408L294 408L294 412L306 413L306 421L315 421L315 425L319 425L319 437C324.421 437 329.618 436.425 335 436L335 433L331 433L331 429L327 429L327 421L319 421L319 412L315 412L315 408L311 408C308.783 401.32 295.864 404 290 404z"/>
<path style="fill:#fa9c45; stroke:none;" d="M196 408C197.506 408.683 198.315 408.826 200 409L200 412L216 412L216 416L224 416L224 420L232 421L232 425L245 425L245 429L249 429L249 433L257 433L257 438L282 438C280.494 437.317 279.685 437.174 278 437L278 433L269 433L269 429L265 429L265 425L261 425L261 421L257 421L257 417C251.579 417 246.382 416.425 241 416L241 412L236 412L236 416L233 416L233 412L220 412L220 408L196 408z"/>
<path style="fill:#fcac48; stroke:none;" d="M129 413L129 416L116 416C121.712 422.713 133.246 428.123 142 429L142 425L175 425L175 428L183 428L183 425L191 425L191 428L195 428L195 424L191 424L191 421L208 421L208 425L224 425L224 421L212 420L212 416L179 416L179 412L129 413z"/>
<path style="fill:#fcab4e; stroke:none;" d="M191 421L191 424L195 424L195 429L216 429L216 433L233 433L233 437C241.029 438.015 248.908 438 257 438L257 433L249 433L249 429L245 429L245 425L208 425L208 421L191 421z"/>
<path style="fill:#fdb551; stroke:none;" d="M142 425L141 430C172.554 437.234 204.69 438 237 438C235.494 437.317 234.685 437.174 233 437L233 433L216 433L216 429C207.566 429 199.385 428.662 191 428L191 425L183 425L183 428L175 428L175 425L142 425z"/>
</svg>
