<!DOCTYPE svg PUBLIC "-//W3C//DTD SVG 20010904//EN" "http://www.w3.org/TR/2001/REC-SVG-20010904/DTD/svg10.dtd">
<svg version="1.0" xmlns="http://www.w3.org/2000/svg" width="420px" height="420px" viewBox="0 0 4200 4200" preserveAspectRatio="xMidYMid meet">
<g id="layer101" fill="#000104" stroke="none">
 <path d="M3020 3636 c-7 -9 -28 -16 -49 -16 -20 0 -45 -7 -55 -15 -11 -8 -36 -15 -55 -15 -20 0 -45 -7 -55 -15 -11 -8 -34 -15 -52 -15 -18 0 -36 -4 -39 -10 -3 -5 -21 -10 -38 -10 -18 0 -45 -7 -61 -15 -15 -8 -42 -15 -60 -15 -17 0 -40 -7 -50 -15 -11 -8 -36 -15 -57 -15 -20 0 -42 -7 -49 -15 -7 -8 -29 -15 -49 -15 -20 0 -45 -7 -55 -15 -11 -8 -37 -15 -57 -15 -21 0 -41 -4 -44 -10 -3 -5 -18 -10 -33 -10 -15 0 -40 -7 -56 -15 -15 -8 -43 -15 -60 -15 -18 0 -41 -7 -52 -15 -10 -8 -35 -15 -54 -15 -19 0 -44 -7 -54 -15 -11 -8 -36 -15 -55 -15 -20 0 -45 -7 -55 -15 -11 -8 -34 -15 -52 -15 -18 0 -36 -4 -39 -10 -3 -5 -21 -10 -38 -10 -18 0 -45 -7 -61 -15 -15 -8 -42 -15 -60 -15 -17 0 -40 -7 -50 -15 -11 -8 -36 -15 -57 -15 -20 0 -42 -7 -49 -15 -7 -8 -27 -15 -45 -15 -18 0 -46 -7 -61 -15 -16 -8 -43 -15 -61 -15 -17 0 -35 -4 -38 -10 -3 -5 -18 -10 -33 -10 -15 0 -40 -7 -56 -15 -15 -8 -43 -15 -60 -15 -18 0 -41 -7 -52 -15 -10 -8 -35 -15 -54 -15 -19 0 -44 -7 -54 -15 -11 -8 -36 -15 -55 -15 -20 0 -45 -7 -55 -15 -11 -8 -34 -15 -52 -15 -18 0 -36 -4 -39 -10 -3 -5 -19 -10 -35 -10 -51 0 -60 -9 -60 -55 0 -23 7 -56 15 -71 8 -16 15 -45 15 -65 0 -19 7 -44 15 -55 8 -10 15 -37 15 -59 0 -22 7 -51 15 -65 8 -14 14 -40 15 -58 0 -18 4 -40 9 -50 6 -9 13 -38 16 -64 3 -26 10 -50 16 -53 5 -4 9 -25 9 -49 0 -23 7 -51 15 -62 8 -10 15 -37 15 -59 0 -22 7 -49 15 -59 8 -11 15 -39 15 -62 0 -23 5 -44 11 -46 5 -2 14 -28 19 -58 4 -30 16 -84 25 -120 9 -36 19 -85 24 -110 4 -25 13 -55 19 -67 7 -12 12 -37 12 -55 0 -19 7 -43 15 -54 8 -10 15 -37 15 -59 0 -22 7 -51 15 -65 8 -14 14 -42 15 -62 0 -20 4 -39 9 -42 5 -3 12 -31 16 -61 3 -30 11 -55 16 -55 5 0 9 -19 9 -42 1 -24 7 -54 15 -68 8 -14 15 -43 15 -65 0 -22 7 -49 15 -59 8 -11 15 -39 15 -62 0 -23 5 -44 11 -46 5 -2 14 -28 19 -58 12 -77 27 -140 39 -173 6 -16 11 -43 11 -61 0 -18 7 -41 15 -52 8 -10 15 -37 15 -60 0 -22 7 -49 15 -60 8 -10 15 -36 15 -57 0 -57 24 -97 58 -97 15 0 36 7 46 15 11 8 36 15 57 15 20 0 42 7 49 15 7 8 29 15 49 15 20 0 45 7 55 15 11 8 37 15 57 15 21 0 41 5 44 10 3 6 18 10 33 10 15 0 40 7 56 15 15 8 43 15 60 15 18 0 41 7 52 15 10 8 35 15 54 15 19 0 44 7 54 15 11 8 36 15 55 15 20 0 45 7 55 15 11 8 34 15 52 15 18 0 36 4 39 10 3 5 21 10 38 10 18 0 45 7 61 15 15 8 42 15 60 15 17 0 40 7 50 15 11 8 36 15 57 15 20 0 42 7 49 15 7 8 27 15 45 15 18 0 46 7 61 15 16 8 43 15 61 15 17 0 35 5 38 10 3 6 18 10 33 10 15 0 40 7 56 15 15 8 43 15 60 15 18 0 41 7 52 15 10 8 35 15 54 15 19 0 44 7 54 15 11 8 36 15 55 15 20 0 45 7 55 15 11 8 34 15 52 15 18 0 36 4 39 10 3 5 21 10 38 10 18 0 45 7 61 15 15 8 43 15 61 15 18 0 38 7 45 15 7 9 29 15 55 15 26 0 48 6 55 15 7 8 27 15 45 15 18 0 46 7 61 15 16 8 43 15 59 15 17 0 35 4 40 9 6 5 26 11 45 13 l35 3 -4 70 c-2 38 -9 79 -17 90 -8 11 -14 33 -14 49 0 16 -4 43 -9 60 -18 62 -33 122 -41 176 -5 30 -14 56 -19 58 -6 2 -11 22 -11 45 -1 23 -7 53 -15 67 -8 14 -15 43 -15 65 0 22 -7 49 -15 59 -8 11 -15 35 -15 53 0 18 -4 41 -9 51 -6 9 -13 38 -16 64 -3 26 -10 50 -16 53 -5 4 -9 23 -9 44 0 21 -7 52 -15 67 -8 16 -15 45 -15 64 0 19 -7 44 -15 54 -8 11 -15 35 -15 54 0 18 -5 43 -12 55 -6 12 -15 42 -19 67 -20 115 -31 165 -38 175 -5 5 -11 32 -14 60 -3 27 -10 51 -16 53 -6 2 -11 22 -11 45 -1 23 -7 53 -15 67 -8 14 -14 44 -15 67 0 23 -5 43 -11 45 -5 2 -13 24 -15 48 -3 25 -9 54 -14 65 -5 11 -11 41 -15 67 -3 26 -10 50 -16 53 -5 4 -9 25 -9 48 0 23 -7 51 -15 61 -8 11 -15 38 -15 60 0 23 -7 50 -15 60 -8 11 -15 36 -15 55 0 20 -7 49 -15 65 -8 15 -15 44 -15 62 0 19 -4 42 -9 52 -5 9 -13 40 -18 67 -8 48 -9 50 -44 53 -23 2 -40 -2 -49 -12z m-696 -1402 c3 -9 6 -36 6 -60 0 -24 4 -44 9 -44 4 0 11 -23 14 -52 4 -28 11 -56 17 -62 5 -5 10 -28 10 -51 0 -23 4 -45 10 -51 5 -5 14 -32 19 -59 9 -45 8 -52 -11 -67 -11 -10 -33 -18 -48 -18 -15 0 -41 -7 -56 -15 -16 -8 -43 -15 -61 -15 -17 0 -35 -4 -38 -10 -3 -5 -17 -10 -30 -10 -14 0 -42 -6 -62 -14 -21 -8 -54 -17 -74 -19 -32 -5 -38 -2 -48 19 -6 14 -11 39 -11 57 -1 18 -7 43 -15 57 -8 14 -15 43 -15 65 0 22 -7 49 -15 59 -8 11 -15 38 -15 60 0 23 -7 50 -15 60 -34 45 0 96 64 96 16 0 42 7 57 15 16 8 43 15 61 15 17 0 35 5 38 10 3 6 18 10 32 10 14 0 39 7 56 15 18 8 48 16 67 18 19 2 38 5 41 5 4 1 10 -5 13 -14z"/>
 </g>

</svg>